<svg width="24" height="24" viewBox="0 0 24 24" fill="none" xmlns="http://www.w3.org/2000/svg">
<mask id="mask0_2008_323" style="mask-type:luminance" maskUnits="userSpaceOnUse" x="14" y="2" width="9" height="9">
<path fill-rule="evenodd" clip-rule="evenodd" d="M14.354 2.00031H22.893V10.5331H14.354V2.00031Z" fill="white"/>
</mask>
<g mask="url(#mask0_2008_323)">
<path fill-rule="evenodd" clip-rule="evenodd" d="M22.1427 10.5331C21.7657 10.5331 21.4417 10.2501 21.3987 9.86712C21.0197 6.49112 18.3977 3.87112 15.0207 3.49612C14.6097 3.45012 14.3127 3.08012 14.3587 2.66812C14.4037 2.25712 14.7707 1.95412 15.1867 2.00612C19.2647 2.45912 22.4317 5.62212 22.8887 9.69912C22.9347 10.1111 22.6387 10.4821 22.2277 10.5281C22.1997 10.5311 22.1707 10.5331 22.1427 10.5331Z" fill="black"/>
</g>
<path fill-rule="evenodd" clip-rule="evenodd" d="M18.6024 10.5439C18.2504 10.5439 17.9374 10.2959 17.8674 9.93791C17.5794 8.45791 16.4384 7.31691 14.9604 7.02991C14.5534 6.95091 14.2884 6.55791 14.3674 6.15091C14.4464 5.74391 14.8464 5.47791 15.2464 5.55791C17.3274 5.96191 18.9344 7.56791 19.3394 9.64991C19.4184 10.0579 19.1534 10.4509 18.7474 10.5299C18.6984 10.5389 18.6504 10.5439 18.6024 10.5439Z" fill="black"/>
<path fill-rule="evenodd" clip-rule="evenodd" d="M3.36121 4.01158C5.28846 2.08421 6.54357 1.57364 7.8827 2.34361C8.26788 2.56511 8.62902 2.87523 9.12 3.37389L10.6268 4.93541C11.4588 5.84325 11.6477 6.71446 11.3768 7.73424L11.3397 7.86998L11.2987 8.00377L11.0966 8.59459C10.6656 9.91951 10.8463 10.667 12.3798 12.2001C13.9743 13.7941 14.7185 13.9252 16.1454 13.4266L16.4003 13.3378L16.7079 13.2381L16.8427 13.201C17.9265 12.912 18.8423 13.1427 19.8134 14.1131L21.0272 15.285L21.3837 15.6366C21.7798 16.0405 22.0419 16.3608 22.2352 16.6991C23.0004 18.0378 22.4887 19.2919 20.5057 21.2674L20.3173 21.4588C20.0213 21.744 19.7449 21.9486 19.3388 22.1415C18.6566 22.4653 17.8504 22.5871 16.9139 22.4569C14.6065 22.1359 11.6798 20.3155 7.97157 16.6083C7.66983 16.3066 7.38092 16.0107 7.10438 15.7206L6.56727 15.1473C1.53757 9.68268 1.09395 6.32593 3.15516 4.22057L3.28895 4.08776L3.36121 4.01158ZM7.13563 3.64342C6.6741 3.37802 6.17502 3.49031 5.25282 4.28404L4.96375 4.54283C4.91328 4.58942 4.86131 4.63816 4.80848 4.68834L4.47645 5.01256L4.44618 5.04967L4.22059 5.27623C3.67642 5.83219 3.41835 6.51076 3.64051 7.6776C4.00512 9.59262 5.67413 12.1906 9.03211 15.5477C12.531 19.0457 15.1973 20.704 17.121 20.9715C18.2421 21.1274 18.8141 20.856 19.3973 20.2587L19.8427 19.8094C20.0512 19.5913 20.2293 19.3934 20.3798 19.2128L20.5848 18.954C21.1094 18.2552 21.1577 17.8357 20.9335 17.4432C20.8481 17.2939 20.7236 17.1297 20.5429 16.9296L20.2977 16.6708L20.1522 16.5253L18.621 15.0467C18.1094 14.5751 17.7592 14.5086 17.2284 14.6503L17.0761 14.6942L16.4413 14.909C14.6012 15.5033 13.2741 15.215 11.3192 13.2606C9.29467 11.2366 9.05695 9.8854 9.73524 7.93932L9.77821 7.81432L9.8993 7.45104L9.95789 7.22057C10.0628 6.7176 9.94291 6.3668 9.40223 5.82604C9.37999 5.8038 9.35505 5.77826 9.32801 5.75084L7.90614 4.28111C7.58042 3.96 7.34424 3.76341 7.13563 3.64342Z" fill="black"/>
</svg>
