<svg width="24" height="24" viewBox="0 0 24 24" fill="none" xmlns="http://www.w3.org/2000/svg">
<mask id="mask0_2008_313" style="mask-type:luminance" maskUnits="userSpaceOnUse" x="2" y="2" width="21" height="21">
<path fill-rule="evenodd" clip-rule="evenodd" d="M2 2.00018H22.0027V22.0012H2V2.00018Z" fill="white"/>
</mask>
<g mask="url(#mask0_2008_313)">
<path fill-rule="evenodd" clip-rule="evenodd" d="M10.9447 20.0755C11.5347 20.6515 12.4847 20.6445 13.0707 20.0555L13.7927 19.3355C14.3527 18.7765 15.1267 18.4575 15.9157 18.4575H16.9457C17.7797 18.4575 18.4577 17.7795 18.4577 16.9465V15.9175C18.4577 15.1165 18.7677 14.3635 19.3337 13.7965L20.0537 13.0755C20.3467 12.7815 20.5037 12.4005 20.5027 11.9965C20.5017 11.5935 20.3427 11.2145 20.0557 10.9285L19.3347 10.2065C18.7677 9.63551 18.4577 8.88351 18.4577 8.08251V7.05551C18.4577 6.22151 17.7797 5.54351 16.9457 5.54351H15.9177C15.1167 5.54351 14.3637 5.23251 13.7967 4.66951L13.0747 3.94651C12.4737 3.35151 11.5147 3.35451 10.9277 3.94551L10.2087 4.66651C9.63472 5.23351 8.88172 5.54351 8.08372 5.54351H7.05472C6.22172 5.54451 5.54372 6.22251 5.54372 7.05551V8.08051C5.54372 8.88151 5.23272 9.63451 4.66872 10.2025L3.95872 10.9135C3.95172 10.9215 3.94472 10.9275 3.93772 10.9345C3.35072 11.5255 3.35372 12.4845 3.94472 13.0715L4.66672 13.7935C5.23272 14.3615 5.54372 15.1145 5.54372 15.9155V16.9465C5.54372 17.7795 6.22072 18.4575 7.05472 18.4575H8.08172C8.88372 18.4585 9.63672 18.7695 10.2037 19.3345L10.9247 20.0535C10.9307 20.0605 10.9377 20.0675 10.9447 20.0755ZM11.9987 22.0015C11.2317 22.0015 10.4647 21.7115 9.87772 21.1295C9.86972 21.1215 9.86172 21.1135 9.85372 21.1045L9.14372 20.3955C8.86072 20.1145 8.48272 19.9585 8.08072 19.9575H7.05472C5.39372 19.9575 4.04372 18.6065 4.04372 16.9465V15.9155C4.04372 15.5135 3.88672 15.1365 3.60472 14.8525L2.88572 14.1345C1.71772 12.9725 1.70372 11.0805 2.85072 9.90051C2.85972 9.89151 2.86872 9.88251 2.87772 9.87351L3.60572 9.14351C3.88672 8.86051 4.04372 8.48151 4.04372 8.08051V7.05551C4.04372 5.39551 5.39372 4.04451 7.05372 4.04351H8.08372C8.48472 4.04351 8.86272 3.88651 9.14972 3.60351L9.86472 2.88651C11.0337 1.70951 12.9447 1.70351 14.1237 2.87551L14.8547 3.60651C15.1377 3.88751 15.5157 4.04351 15.9177 4.04351H16.9457C18.6067 4.04351 19.9577 5.39451 19.9577 7.05551V8.08251C19.9577 8.48351 20.1137 8.86251 20.3967 9.14751L21.1147 9.86651C21.6837 10.4315 21.9997 11.1865 22.0027 11.9915C22.0057 12.7965 21.6947 13.5535 21.1277 14.1245L20.3947 14.8555C20.1137 15.1385 19.9577 15.5155 19.9577 15.9175V16.9465C19.9577 18.6065 18.6067 19.9575 16.9467 19.9575H15.9157C15.5197 19.9575 15.1327 20.1175 14.8517 20.3965L14.1337 21.1145C13.5467 21.7055 12.7727 22.0015 11.9987 22.0015Z" fill="black"/>
</g>
<path fill-rule="evenodd" clip-rule="evenodd" d="M9.42993 15.3215C9.23793 15.3215 9.04593 15.2485 8.89993 15.1015C8.60693 14.8085 8.60693 14.3345 8.89993 14.0415L14.0399 8.90048C14.3329 8.60748 14.8079 8.60748 15.1009 8.90048C15.3939 9.19348 15.3939 9.66848 15.1009 9.96148L9.95993 15.1015C9.81393 15.2485 9.62193 15.3215 9.42993 15.3215Z" fill="black"/>
<path fill-rule="evenodd" clip-rule="evenodd" d="M14.5035 15.4992C13.9505 15.4992 13.4985 15.0522 13.4985 14.4992C13.4985 13.9462 13.9415 13.4992 14.4945 13.4992H14.5035C15.0565 13.4992 15.5035 13.9462 15.5035 14.4992C15.5035 15.0522 15.0565 15.4992 14.5035 15.4992Z" fill="black"/>
<path fill-rule="evenodd" clip-rule="evenodd" d="M9.50354 10.4992C8.95054 10.4992 8.49854 10.0522 8.49854 9.49921C8.49854 8.94621 8.94154 8.49921 9.49454 8.49921H9.50354C10.0565 8.49921 10.5035 8.94621 10.5035 9.49921C10.5035 10.0522 10.0565 10.4992 9.50354 10.4992Z" fill="black"/>
</svg>
